<svg width="14" height="14" viewBox="0 0 14 14" fill="none" xmlns="http://www.w3.org/2000/svg">
<g clip-path="url(#clip0)">
<path d="M13.3886 0.911255C12.7569 0.571081 12.0522 1.22713 11.6392 1.6159C10.6916 2.53923 9.88973 3.60835 8.99066 4.58027C7.99444 5.64939 7.07111 6.7185 6.05059 7.76336C5.46744 8.34652 4.83569 8.97827 4.44692 9.70721C3.57219 8.85674 2.81895 7.93341 1.84703 7.18021C1.14238 6.64565 -0.0239244 6.25688 0.000373684 7.54468C0.0489698 9.22129 1.53115 11.0193 2.62457 12.1613C3.08623 12.6473 3.69368 13.1575 4.39833 13.1818C5.24876 13.2304 6.12349 12.2099 6.63375 11.6511C7.53282 10.6791 8.26176 9.58568 9.08785 8.5895C10.157 7.2774 11.2504 5.98956 12.2952 4.65316C12.9512 3.82703 15.0166 1.78595 13.3886 0.911255ZM1.06945 7.44749C1.04515 7.44749 1.02085 7.44749 0.972257 7.47175C0.875065 7.44749 0.802171 7.42315 0.704978 7.37455C0.777872 7.32596 0.899363 7.35026 1.06945 7.44749Z" fill="#03B962"/>
</g>
<defs>
<clipPath id="clip0">
<rect width="14" height="14" fill="white"/>
</clipPath>
</defs>
</svg>
