<svg width="111" height="111" viewBox="0 0 111 111" fill="none" xmlns="http://www.w3.org/2000/svg">
<path d="M73.8079 53.3299L50.7591 36.5751C49.9132 35.962 48.7903 35.8696 47.8632 36.3461C46.9287 36.8189 46.3451 37.7793 46.3451 38.8172V72.3156C46.3451 73.3646 46.9287 74.3213 47.8632 74.7941C48.2584 74.9935 48.6906 75.0933 49.1265 75.0933C49.6953 75.0933 50.2715 74.9123 50.7591 74.554L73.8079 57.814C74.5356 57.2784 74.9604 56.451 74.9604 55.5719C74.964 54.6781 74.5282 53.8544 73.8079 53.3299Z" fill="#34296B"/>
<path d="M55.5018 0.00726318C24.844 0.00726318 0 24.8512 0 55.5091C0 86.1559 24.844 110.992 55.5018 110.992C86.1523 110.992 111 86.1522 111 55.5091C111.004 24.8512 86.1523 0.00726318 55.5018 0.00726318ZM55.5018 101.732C29.9708 101.732 9.27124 81.0438 9.27124 55.5091C9.27124 29.9855 29.9708 9.27111 55.5018 9.27111C81.0291 9.27111 101.725 29.9818 101.725 55.5091C101.729 81.0438 81.0291 101.732 55.5018 101.732Z" fill="#34296B"/>
</svg>
