<svg width="23" height="23" viewBox="0 0 23 23" fill="none" xmlns="http://www.w3.org/2000/svg">
<path d="M0 23L1.58619 17.25C0.555189 15.4655 0 13.4828 0 11.4207C0 5.15519 5.15519 0 11.4603 0C17.7655 0 23 5.15519 23 11.4207C23 17.6861 17.7655 23 11.4603 23C9.47757 23 7.57414 22.3655 5.86895 21.4138L0 23Z" fill="#EDEDED"/>
<path d="M6.18622 19.3517L6.54312 19.55C8.01036 20.4621 9.71555 21.0173 11.5 21.0173C16.6948 21.0173 21.0173 16.6948 21.0173 11.4207C21.0173 6.14655 16.6948 1.98279 11.4604 1.98279C6.22588 1.98279 1.98279 6.18622 1.98279 11.4207C1.98279 13.2448 2.49831 15.0293 3.45003 16.5362L3.68798 16.8931L2.77593 20.2242L6.18622 19.3517Z" fill="#55CD6C"/>
<path d="M8.40688 6.10693L7.65345 6.06726C7.4155 6.06726 7.17759 6.14659 7.01897 6.30521C6.66207 6.62245 6.06726 7.21726 5.90864 8.0104C5.63106 9.20007 6.06726 10.6276 7.0983 12.0552C8.12935 13.4828 10.1121 15.7828 13.6017 16.7742C14.7121 17.0914 15.5845 16.8931 16.2983 16.4569C16.8535 16.1 17.2104 15.5449 17.3293 14.95L17.4483 14.3948C17.488 14.2362 17.4086 14.0379 17.25 13.9586L14.7517 12.8086C14.5931 12.7293 14.3948 12.769 14.2759 12.9276L13.2845 14.1965C13.2052 14.2759 13.0862 14.3155 12.9673 14.2759C12.2931 14.0379 10.0328 13.0862 8.80345 10.7069C8.76378 10.588 8.76378 10.469 8.84311 10.3897L9.79483 9.31902C9.87416 9.20007 9.91378 9.04145 9.87416 8.92245L8.72416 6.34488C8.68445 6.22588 8.5655 6.10693 8.40688 6.10693Z" fill="#FEFEFE"/>
</svg>
